<svg width="37" height="24" viewBox="0 0 37 24" fill="none" xmlns="http://www.w3.org/2000/svg">
<g clip-path="url(#clip0_4319_4118)">
<path d="M0.449637 3C0.449637 1.48098 1.68105 0.249563 3.20007 0.249563H33.2001C34.7191 0.249563 35.9505 1.48098 35.9505 3V21C35.9505 22.519 34.7191 23.7504 33.2001 23.7504H3.20007C1.68105 23.7504 0.449637 22.519 0.449637 21V3Z" fill="white" stroke="#E0E0E0" stroke-width="0.499127"/>
<path d="M21.957 4.89524L14.2102 4.92188L14.445 19.1042L22.1917 19.0776L21.957 4.89524Z" fill="#FF5F00"/>
<path d="M14.7199 12.0415C14.672 9.15694 15.9642 6.59387 17.9882 4.93134C16.4604 3.73251 14.5451 3.01161 12.4689 3.01872C7.55023 3.03557 3.63791 7.08761 3.72086 12.0792C3.80381 17.0708 7.85035 21.0956 12.769 21.0787C14.8452 21.0716 16.7364 20.3377 18.2241 19.1285C16.1455 17.5051 14.7678 14.9261 14.7199 12.0415Z" fill="#EB001B"/>
<path d="M32.6811 11.9207C32.764 16.9122 28.8517 20.9643 23.933 20.9811C21.8568 20.9882 19.9415 20.2674 18.4138 19.0685C20.4625 17.4059 21.73 14.8429 21.682 11.9583C21.6341 9.07376 20.2569 6.51983 18.1778 4.87136C19.6656 3.6622 21.5567 2.92826 23.6329 2.92115C28.5516 2.9043 32.5985 6.95417 32.6811 11.9207Z" fill="#F79E1B"/>
</g>
<defs>
<clipPath id="clip0_4319_4118">
<rect width="36" height="24" fill="white" transform="translate(0.200195)"/>
</clipPath>
</defs>
</svg>
