<svg width="36" height="24" viewBox="0 0 36 24" fill="none" xmlns="http://www.w3.org/2000/svg">
<path d="M0.24993 3C0.24993 1.48098 1.48134 0.249563 3.00037 0.249563H33.0004C34.5194 0.249563 35.7508 1.48098 35.7508 3V21C35.7508 22.519 34.5194 23.7504 33.0004 23.7504H3.00037C1.48134 23.7504 0.24993 22.519 0.24993 21V3Z" fill="white" stroke="#E0E0E0" stroke-width="0.499127"/>
<path d="M17.5374 11.5449V13.0283H10.7151V11.5449H17.5374ZM14.926 8.75586V16.002H13.3333V8.75586H14.926ZM25.6516 13.4521V14.7646H18.4739L18.4192 13.7734L22.7122 7.04688H24.0315L22.6028 9.49414L20.135 13.4521H25.6516ZM24.4075 7.04688V17H22.76V7.04688H24.4075Z" fill="#333333"/>
</svg>
