<svg width="37" height="24" viewBox="0 0 37 24" fill="none" xmlns="http://www.w3.org/2000/svg">
<g clip-path="url(#clip0_4319_4117)">
<path d="M0.449759 3C0.449759 1.48098 1.68117 0.249563 3.2002 0.249563H33.2002C34.7192 0.249563 35.9506 1.48098 35.9506 3V21C35.9506 22.519 34.7192 23.7504 33.2002 23.7504H3.20019C1.68117 23.7504 0.449759 22.519 0.449759 21V3Z" fill="white" stroke="#E0E0E0" stroke-width="0.499127"/>
<path d="M31.182 7.52612H29.296C28.7259 7.52612 28.2873 7.70156 28.0241 8.27174L24.4276 16.4735H26.9715C26.9715 16.4735 27.4101 15.377 27.4978 15.1138C27.7609 15.1138 30.2609 15.1138 30.6118 15.1138C30.6995 15.4209 30.9188 16.4296 30.9188 16.4296H33.1995L31.182 7.52612ZM28.1995 13.2717C28.4188 12.7454 29.1645 10.7717 29.1645 10.7717C29.1645 10.8156 29.3838 10.2454 29.4715 9.9384L29.6469 10.7279C29.6469 10.7279 30.1294 12.877 30.2171 13.3156H28.1995V13.2717Z" fill="#3362AB"/>
<path d="M24.6034 13.5346C24.6034 15.3767 22.9368 16.6048 20.3491 16.6048C19.2526 16.6048 18.1999 16.3855 17.6298 16.1224L17.9806 14.1048L18.2877 14.2364C19.0771 14.5873 19.6034 14.7188 20.5684 14.7188C21.2701 14.7188 22.0157 14.4557 22.0157 13.8417C22.0157 13.4469 21.7087 13.1838 20.7438 12.7452C19.8227 12.3066 18.5947 11.6048 18.5947 10.3329C18.5947 8.5785 20.3052 7.39429 22.7175 7.39429C23.6385 7.39429 24.428 7.56973 24.9105 7.78902L24.5596 9.71885L24.3841 9.54341C23.9455 9.36797 23.3754 9.19253 22.542 9.19253C21.621 9.23639 21.1824 9.63113 21.1824 9.98201C21.1824 10.3767 21.7087 10.6838 22.542 11.0785C23.9455 11.7364 24.6034 12.482 24.6034 13.5346Z" fill="#3362AB"/>
<path d="M3.19983 7.61318L3.24369 7.43774H7.01562C7.54193 7.43774 7.93667 7.61318 8.06825 8.18336L8.90158 12.1307C8.06825 10.0255 6.13843 8.31494 3.19983 7.61318Z" fill="#F9B50B"/>
<path d="M14.2089 7.52604L10.3931 16.4295H7.80541L5.61243 8.97341C7.19137 9.98218 8.50716 11.5611 8.98962 12.6576L9.25278 13.5787L11.6212 7.48218H14.2089V7.52604Z" fill="#3362AB"/>
<path d="M15.2173 7.48218H17.6296L16.0945 16.4295H13.6823L15.2173 7.48218Z" fill="#3362AB"/>
</g>
<defs>
<clipPath id="clip0_4319_4117">
<rect width="36" height="24" fill="white" transform="translate(0.200195)"/>
</clipPath>
</defs>
</svg>
